General
Complete name                            : Neverland.PartI.(2011).BRRip.480p.x264.Eng.AAC.5.1.AMX.mp4
Format                                   : MPEG-4
Format profile                           : Base Media
Codec ID                                 : isom
File size                                : 841 MiB
Duration                                 : 1h 25mn
Overall bit rate mode                    : Variable
Overall bit rate                         : 1 377 Kbps

Video
ID                                       : 1
Format                                   : AVC
Format/Info                              : Advanced Video Codec
Format profile                           : High@L3.1
Format settings, CABAC                   : Yes
Format settings, ReFrames                : 8 frames
Codec ID                                 : avc1
Codec ID/Info                            : Advanced Video Coding
Duration                                 : 1h 25mn
Bit rate                                 : 1 036 Kbps
Maximum bit rate                         : 7 594 Kbps
Width                                    : 720 pixels
Height                                   : 400 pixels
Display aspect ratio                     : 16:9
Frame rate mode                          : Constant
Frame rate                               : 23.976 fps
Color space                              : YUV
Chroma subsampling                       : 4:2:0
Bit depth                                : 8 bits
Scan type                                : Progressive
Bits/(Pixel*Frame)                       : 0.150
Stream size                              : 633 MiB (75%)
Writing library                          : x264 core 125 r2200 999b753

Audio
ID                                       : 2
Format                                   : AAC
Format/Info                              : Advanced Audio Codec
Format profile                           : LC
Codec ID                                 : 40
Duration                                 : 1h 25mn
Bit rate mode                            : Variable
Bit rate                                 : 336 Kbps
Maximum bit rate                         : 382 Kbps
Channel(s)                               : 6 channels
Channel positions                        : Front: L C R, Side: L R, LFE
Sampling rate                            : 48.0 KHz
Compression mode                         : Lossy
Stream size                              : 206 MiB (24%)
Language                                 : English


General
Complete name                            : Neverland.PartII.(2011).BRRip.480p.x264.Eng.AAC.5.1.AMX.mp4
File size                                : 1 007 MiB
Duration                                 : 1h 23mn
Overall bit rate                         : 1 688 Kbps

Video
Bit rate                                 : 1 342 Kbps
Maximum bit rate                         : 12.4 Mbps
Bits/(Pixel*Frame)                       : 0.194
Stream size                              : 801 MiB (80%)

Audio
Bit rate                                 : 341 Kbps
Maximum bit rate                         : 378 Kbps
Stream size                              : 204 MiB (20%)